<svg xmlns="http://www.w3.org/2000/svg" width="24" height="24" viewBox="0 0 2264 1856">
<g transform="translate(0,1856) scale(0.1,-0.1)" fill="black" stroke="none">
<path d="M17020 17013 c-67 -28 -93 -71 -200 -328 -61 -147 -244 -527 -315
-655 -161 -288 -376 -531 -603 -683 -246 -164 -518 -302 -1003 -506 -105 -44
-134 -64 -169 -112 -25 -34 -30 -52 -30 -96 0 -103 55 -162 204 -218 92 -35
379 -162 541 -239 311 -149 578 -334 743 -513 90 -99 182 -216 182 -233 0 -6
7 -13 15 -16 8 -4 15 -9 15 -13 0 -4 36 -67 80 -141 101 -170 181 -331 310
-625 4 -11 25 -60 46 -110 89 -215 106 -240 185 -275 38 -16 61 -20 87 -15 45
8 102 37 123 61 22 24 59 101 94 189 32 82 36 91 105 255 179 423 386 757 599
967 238 236 561 422 1212 700 190 81 229 119 229 226 0 41 -6 63 -27 95 -32
50 -91 82 -303 170 -279 116 -626 292 -808 409 -272 177 -460 377 -640 684
-81 137 -235 446 -302 607 -136 323 -152 355 -195 388 -30 23 -49 29 -99 31
-33 1 -68 0 -76 -4z"/>
<path d="M4409 15995 c-177 -28 -298 -67 -480 -154 -332 -159 -596 -420 -764
-756 -76 -152 -113 -261 -152 -440 l-28 -130 0 -4120 c0 -3324 2 -4134 13
-4190 53 -287 134 -491 285 -715 76 -112 262 -307 372 -391 200 -151 447 -259
708 -311 l112 -22 1655 -6 1655 -5 13 -39 c7 -22 24 -92 38 -155 14 -64 50
-219 79 -346 30 -126 64 -273 75 -325 11 -52 29 -133 40 -180 11 -47 26 -116
34 -155 8 -38 29 -128 46 -200 17 -71 39 -173 50 -225 27 -126 95 -415 121
-515 79 -299 293 -516 579 -585 213 -51 467 2 631 132 66 52 252 216 609 534
85 77 178 159 205 183 229 200 375 329 460 406 56 49 179 160 275 245 156 139
290 258 591 529 53 47 145 129 205 183 486 431 521 460 580 489 l62 29 2295 0
c2498 0 2402 -2 2625 55 420 108 791 385 1022 760 91 147 160 314 199 479 48
201 46 89 46 2911 l0 2660 -24 64 c-64 167 -261 283 -425 251 -192 -38 -307
-170 -327 -377 -6 -59 -8 -570 -5 -1273 2 -646 1 -1809 -3 -2585 l-7 -1410
-28 -85 c-69 -209 -174 -367 -315 -473 -98 -75 -172 -112 -321 -161 l-65 -21
-2390 -5 c-2213 -6 -2394 -7 -2445 -23 -133 -41 -189 -62 -245 -90 -120 -60
-161 -93 -560 -452 -98 -88 -221 -198 -274 -244 -53 -46 -130 -114 -171 -151
-41 -37 -91 -80 -110 -96 -19 -16 -60 -52 -90 -80 -30 -29 -76 -70 -102 -91
-51 -42 -226 -196 -383 -338 -55 -49 -138 -124 -185 -165 -47 -41 -132 -118
-190 -171 -291 -266 -943 -838 -950 -834 -4 3 -20 55 -34 117 -15 62 -34 141
-42 176 -17 72 -185 813 -214 942 -10 47 -25 114 -33 150 -9 36 -27 119 -42
185 -14 66 -30 134 -34 150 -5 17 -26 104 -46 195 -36 160 -60 248 -88 320
-80 211 -257 382 -472 455 -133 45 -129 45 -1845 45 -1566 0 -1628 1 -1712 20
-186 41 -329 119 -458 251 -123 125 -219 315 -249 494 -9 53 -12 1034 -9 4115
l3 4045 28 90 c53 170 126 291 249 412 116 114 229 180 393 229 58 18 254 19
4835 24 l4775 5 57 23 c119 48 219 176 236 301 22 157 -38 297 -165 388 -97
69 349 63 -4920 62 -3925 -1 -4783 -3 -4854 -14z"/>
<path d="M10734 13386 c-28 -13 -63 -39 -77 -58 -15 -19 -65 -134 -111 -255
-122 -317 -133 -342 -279 -658 -83 -180 -227 -454 -294 -558 -23 -37 -43 -70
-43 -73 0 -3 -26 -43 -57 -87 -304 -437 -511 -620 -1057 -932 -70 -39 -461
-231 -587 -286 -98 -44 -449 -185 -607 -244 -100 -37 -161 -81 -189 -134 -44
-85 -22 -197 50 -257 35 -28 135 -74 240 -108 59 -20 264 -101 332 -131 28
-13 86 -38 130 -58 334 -145 713 -344 945 -494 401 -261 655 -559 962 -1128
165 -305 353 -728 494 -1113 41 -112 75 -158 139 -191 77 -40 196 -19 257 46
25 26 56 98 169 388 18 44 39 98 49 120 10 22 46 108 81 190 110 260 309 649
438 854 220 349 381 530 644 725 275 203 679 427 1072 592 72 31 144 61 160
69 26 11 163 66 458 182 85 33 153 91 167 141 25 91 5 174 -56 236 -36 35 -52
43 -204 101 -69 26 -138 53 -155 60 -16 7 -73 30 -125 50 -446 173 -861 383
-1195 605 -55 37 -107 71 -116 76 -46 25 -247 203 -329 290 -50 53 -157 186
-203 254 -81 117 -137 202 -137 207 0 4 -6 14 -14 22 -7 9 -26 41 -42 71 -16
30 -32 57 -35 60 -21 19 -224 423 -308 611 -33 76 -97 231 -142 345 -45 115
-85 218 -90 229 -5 11 -17 44 -28 72 -35 97 -66 139 -123 167 -65 32 -117 33
-184 2z"/>
</g>
</svg>
